<?xml version="1.0" encoding="UTF-8" standalone="no"?>
<!DOCTYPE svg PUBLIC "-//W3C//DTD SVG 1.1//EN" "http://www.w3.org/Graphics/SVG/1.1/DTD/svg11.dtd">
<svg version="1.1" xmlns="http://www.w3.org/2000/svg" xmlns:xlink="http://www.w3.org/1999/xlink" preserveAspectRatio="xMidYMid meet" viewBox="101.54494184535474 95.5424747474745 698.3344018663164 401.55718989922474" width="694.33" height="397.56"><defs><path d="M192.9 190.44L210.97 221.74L174.83 221.74L138.69 221.74L156.76 190.44L174.83 159.14L192.9 190.44Z" id="h3uSj2Wl4X"></path><path d="M229.04 190.44L210.97 221.74L192.9 190.44L174.83 159.14L210.97 159.14L247.11 159.14L229.04 190.44Z" id="a6WDviW1Vg"></path><path d="M229.04 127.84L247.11 159.14L210.97 159.14L174.83 159.14L192.9 127.84L210.97 96.54L229.04 127.84Z" id="a1CwmonDz"></path><path d="M265.18 127.84L247.11 159.14L229.04 127.84L210.97 96.54L247.11 96.54L283.25 96.54L265.18 127.84Z" id="a85DihuJP"></path><path d="M337.47 127.84L319.39 159.14L301.32 127.84L283.25 96.54L319.39 96.54L355.54 96.54L337.47 127.84Z" id="b7TwkzFzFC"></path><path d="M409.75 127.84L391.68 159.14L373.61 127.84L355.54 96.54L391.68 96.54L427.82 96.54L409.75 127.84Z" id="aJRlLgqXR"></path><path d="M301.32 127.84L319.39 159.14L283.25 159.14L247.11 159.14L265.18 127.84L283.25 96.54L301.32 127.84Z" id="a1aq4sMXx3"></path><path d="M373.61 127.84L391.68 159.14L355.53 159.14L319.39 159.14L337.46 127.84L355.53 96.54L373.61 127.84Z" id="b7XyZH78F"></path><path d="M192.9 253.04L174.83 284.34L156.76 253.04L138.69 221.74L174.83 221.74L210.97 221.74L192.9 253.04Z" id="i5VBRoH50"></path><path d="M156.76 253.04L174.83 284.34L138.69 284.34L102.54 284.34L120.61 253.04L138.69 221.74L156.76 253.04Z" id="a3iXZ9zXLE"></path><path d="M156.76 315.64L138.69 346.94L120.62 315.64L102.55 284.34L138.69 284.34L174.83 284.34L156.76 315.64Z" id="c1e3s4kPu8"></path><path d="M192.9 315.64L210.97 346.94L174.83 346.94L138.69 346.94L156.76 315.64L174.83 284.34L192.9 315.64Z" id="b8eWXChl1E"></path><path d="M192.9 378.24L174.83 409.54L156.76 378.24L138.69 346.94L174.83 346.94L210.97 346.94L192.9 378.24Z" id="a484a2twcP"></path><path d="M229.04 378.24L247.11 409.54L210.97 409.54L174.83 409.54L192.9 378.24L210.97 346.94L229.04 378.24Z" id="b21w7VNlVa"></path><path d="M229.04 440.84L210.97 472.14L192.9 440.84L174.83 409.54L210.97 409.54L247.11 409.54L229.04 440.84Z" id="a4RofttjnX"></path><path d="M265.18 440.84L283.25 472.14L247.11 472.14L210.97 472.14L229.04 440.84L247.11 409.54L265.18 440.84Z" id="a3nHzqWj9g"></path><path d="M301.32 440.84L283.25 472.14L265.18 440.84L247.11 409.54L283.25 409.54L319.39 409.54L301.32 440.84Z" id="b4nns5OWxj"></path><path d="M337.46 440.84L355.54 472.14L319.39 472.14L283.25 472.14L301.32 440.84L319.39 409.54L337.46 440.84Z" id="b18551PkcI"></path><path d="M373.61 440.84L355.54 472.14L337.46 440.84L319.39 409.54L355.53 409.54L391.68 409.54L373.61 440.84Z" id="btxm2r06h"></path><path d="M409.75 440.84L427.82 472.14L391.68 472.14L355.54 472.14L373.6 440.84L391.68 409.54L409.75 440.84Z" id="c33gQqdD3y"></path><path d="M445.89 440.84L427.82 472.14L409.75 440.84L391.68 409.54L427.82 409.54L463.96 409.54L445.89 440.84Z" id="coxXzVvq0"></path><path d="M445.89 378.24L463.96 409.54L427.82 409.54L391.68 409.54L409.75 378.24L427.82 346.94L445.89 378.24Z" id="acRJJpPuv"></path><path d="M482.03 378.24L463.96 409.54L445.89 378.24L427.82 346.94L463.96 346.94L500.1 346.94L482.03 378.24Z" id="g1si5eBCTC"></path><path d="M445.89 127.84L463.96 159.14L427.82 159.14L391.68 159.14L409.75 127.84L427.82 96.54L445.89 127.84Z" id="a6DboHqRz"></path><path d="M445.89 190.44L427.82 221.74L409.75 190.44L391.68 159.14L427.82 159.14L463.96 159.14L445.89 190.44Z" id="a11HJ21Tz0"></path><path d="M482.03 190.44L500.1 221.74L463.96 221.74L427.82 221.74L445.89 190.44L463.96 159.14L482.03 190.44Z" id="b2foF9pcKh"></path><path d="M577.78 150.76L546.48 168.83L546.48 132.68L546.48 96.54L577.78 114.61L609.08 132.68L577.78 150.76Z" id="aNAdyYaZe"></path><path d="M609.08 168.83L609.08 204.97L577.78 186.9L546.48 168.83L577.78 150.75L609.08 132.68L609.08 168.83Z" id="dzV2VzCZH"></path><path d="M577.78 223.04L546.48 241.11L546.48 204.97L546.48 168.83L577.78 186.89L609.08 204.97L577.78 223.04Z" id="c4MAJ70TI5"></path><path d="M609.08 241.11L609.08 277.25L577.78 259.18L546.48 241.11L577.78 223.04L609.08 204.97L609.08 241.11Z" id="b5fWeNqQRP"></path><path d="M609.08 313.39L609.08 349.53L577.78 331.46L546.48 313.39L577.78 295.32L609.08 277.25L609.08 313.39Z" id="b46Ejw21d"></path><path d="M577.78 295.32L546.48 313.39L546.48 277.25L546.48 241.11L577.78 259.18L609.08 277.25L577.78 295.32Z" id="c3YU5TZnaD"></path><path d="M577.78 367.6L546.48 385.67L546.48 349.53L546.48 313.39L577.78 331.46L609.08 349.53L577.78 367.6Z" id="a6ne6baJKg"></path><path d="M609.08 385.68L609.08 421.82L577.78 403.75L546.48 385.68L577.78 367.6L609.08 349.53L609.08 385.68Z" id="a2CVhySt"></path><path d="M577.78 439.89L546.48 457.96L546.48 421.82L546.48 385.67L577.78 403.74L609.08 421.82L577.78 439.89Z" id="bpunCvP8O"></path><path d="M609.08 457.96L609.08 494.1L577.78 476.03L546.48 457.96L577.78 439.89L609.08 421.82L609.08 457.96Z" id="fCDEPBs9z"></path><path d="M702.98 223.04L671.68 241.11L671.68 204.97L671.68 168.83L702.98 186.89L734.28 204.97L702.98 223.04Z" id="a5HQuoTWjY"></path><path d="M702.98 367.6L671.68 385.67L671.68 349.53L671.68 313.39L702.98 331.46L734.28 349.53L702.98 367.6Z" id="i47EooBWD"></path><path d="M734.28 385.68L734.28 421.82L702.98 403.75L671.68 385.68L702.98 367.6L734.28 349.53L734.28 385.68Z" id="buKLfaVc5"></path><path d="M734.28 168.83L734.28 204.97L702.98 186.9L671.68 168.83L702.98 150.75L734.28 132.68L734.28 168.83Z" id="iHSDIPad7"></path><path d="M765.58 186.9L734.28 204.97L734.28 168.83L734.28 132.68L765.58 150.75L796.88 168.83L765.58 186.9Z" id="f3Q7kLxwVx"></path><path d="M765.58 403.75L734.28 421.82L734.28 385.67L734.28 349.53L765.58 367.6L796.88 385.67L765.58 403.75Z" id="doizBFcOX"></path><path d="M796.88 421.82L796.88 457.96L765.58 439.89L734.28 421.82L765.58 403.75L796.88 385.67L796.88 421.82Z" id="a3PCoqr4BP"></path><path d="M796.88 132.68L796.88 168.83L765.58 150.75L734.28 132.68L765.58 114.61L796.88 96.54L796.88 132.68Z" id="g1IRBA597w"></path><path d="M640.38 331.46L609.08 349.53L609.08 313.39L609.08 277.25L640.38 295.32L671.68 313.39L640.38 331.46Z" id="g3LlO7hlgD"></path><path d="M671.68 349.53L671.68 385.68L640.38 367.6L609.08 349.53L640.38 331.46L671.68 313.39L671.68 349.53Z" id="e2IaVyi2G3"></path><path d="M640.38 259.18L609.08 277.25L609.08 241.11L609.08 204.97L640.38 223.04L671.68 241.11L640.38 259.18Z" id="dkAMtrWSZ"></path><path d="M671.68 204.97L671.68 241.11L640.38 223.04L609.08 204.97L640.38 186.9L671.68 168.83L671.68 204.97Z" id="a4nIxjplBd"></path><path d="M765.58 476.03L734.28 494.1L734.28 457.96L734.28 421.82L765.58 439.89L796.88 457.96L765.58 476.03Z" id="c5LOEWOMS"></path><path d="M346.54 255.64L328.47 286.93L310.4 255.63L292.33 224.34L328.47 224.33L364.61 224.33L346.54 255.64Z" id="a2fPqVVgTc"></path><path d="M310.4 255.63L328.47 286.93L292.33 286.93L256.19 286.93L274.26 255.63L292.33 224.33L310.4 255.63Z" id="eov0hssNs"></path><path d="M310.4 318.23L292.33 349.53L274.26 318.23L256.19 286.93L292.33 286.93L328.47 286.93L310.4 318.23Z" id="b4ckV1zMyS"></path><path d="M346.54 318.23L364.61 349.53L328.47 349.53L292.33 349.53L310.4 318.23L328.47 286.93L346.54 318.23Z" id="fJ5DvUVGQ"></path><path d="M382.68 255.63L400.75 286.93L364.61 286.93L328.47 286.93L346.54 255.63L364.61 224.33L382.68 255.63Z" id="c8xjaA0wMH"></path><path d="M382.68 318.23L364.61 349.53L346.54 318.23L328.47 286.93L364.61 286.93L400.75 286.93L382.68 318.23Z" id="e2AKsvnhw"></path><path d="M409.75 286.93L427.82 318.23L391.68 318.23L355.54 318.23L373.6 286.93L391.68 255.63L409.75 286.93Z" id="b2yc7n8KaU"></path><path d="M409.75 286.93L427.82 255.63L391.68 255.63L355.54 255.63L373.6 286.93L391.68 318.23L409.75 286.93Z" id="bo718djbb"></path><path d="M445.89 286.93L463.96 255.63L427.82 255.63L391.68 255.63L409.75 286.93L427.82 318.23L445.89 286.93Z" id="b38zCXAFGa"></path><path d="M482.03 286.93L500.1 318.23L463.96 318.23L427.82 318.23L445.89 286.93L463.96 255.63L482.03 286.93Z" id="b1wyhODPIK"></path><path d="M518.17 286.93L536.24 255.63L500.1 255.63L463.96 255.63L482.03 286.93L500.1 318.23L518.17 286.93Z" id="ariDem30A"></path></defs><g><g><use xlink:href="#h3uSj2Wl4X" opacity="1" fill="#44459c" fill-opacity="1"></use></g><g><use xlink:href="#a6WDviW1Vg" opacity="1" fill="#cd2027" fill-opacity="1"></use></g><g><use xlink:href="#a1CwmonDz" opacity="1" fill="#5490cc" fill-opacity="1"></use></g><g><use xlink:href="#a85DihuJP" opacity="1" fill="#44459c" fill-opacity="1"></use></g><g><use xlink:href="#b7TwkzFzFC" opacity="1" fill="#5490cc" fill-opacity="1"></use></g><g><use xlink:href="#aJRlLgqXR" opacity="1" fill="#cd2027" fill-opacity="1"></use></g><g><use xlink:href="#a1aq4sMXx3" opacity="1" fill="#f2a4ba" fill-opacity="1"></use></g><g><use xlink:href="#b7XyZH78F" opacity="1" fill="#44459c" fill-opacity="1"></use></g><g><use xlink:href="#i5VBRoH50" opacity="1" fill="#44459c" fill-opacity="1"></use></g><g><use xlink:href="#a3iXZ9zXLE" opacity="1" fill="#f2a4ba" fill-opacity="1"></use></g><g><use xlink:href="#c1e3s4kPu8" opacity="1" fill="#5490cc" fill-opacity="1"></use></g><g><use xlink:href="#b8eWXChl1E" opacity="1" fill="#44459c" fill-opacity="1"></use></g><g><use xlink:href="#a484a2twcP" opacity="1" fill="#cd2027" fill-opacity="1"></use></g><g><use xlink:href="#b21w7VNlVa" opacity="1" fill="#44459c" fill-opacity="1"></use></g><g><use xlink:href="#a4RofttjnX" opacity="1" fill="#44459c" fill-opacity="1"></use></g><g><use xlink:href="#a3nHzqWj9g" opacity="1" fill="#5490cc" fill-opacity="1"></use></g><g><use xlink:href="#b4nns5OWxj" opacity="1" fill="#f2a4ba" fill-opacity="1"></use></g><g><use xlink:href="#b18551PkcI" opacity="1" fill="#cd2027" fill-opacity="1"></use></g><g><use xlink:href="#btxm2r06h" opacity="1" fill="#5490cc" fill-opacity="1"></use></g><g><use xlink:href="#c33gQqdD3y" opacity="1" fill="#f2a4ba" fill-opacity="1"></use></g><g><use xlink:href="#coxXzVvq0" opacity="1" fill="#cd2027" fill-opacity="1"></use></g><g><use xlink:href="#acRJJpPuv" opacity="1" fill="#44459c" fill-opacity="1"></use></g><g><use xlink:href="#g1si5eBCTC" opacity="1" fill="#5490cc" fill-opacity="1"></use></g><g><use xlink:href="#a6DboHqRz" opacity="1" fill="#f2a4ba" fill-opacity="1"></use></g><g><use xlink:href="#a11HJ21Tz0" opacity="1" fill="#44459c" fill-opacity="1"></use></g><g><use xlink:href="#b2foF9pcKh" opacity="1" fill="#5490cc" fill-opacity="1"></use></g><g><use xlink:href="#aNAdyYaZe" opacity="1" fill="#cd2027" fill-opacity="1"></use></g><g><use xlink:href="#dzV2VzCZH" opacity="1" fill="#44459c" fill-opacity="1"></use></g><g><use xlink:href="#c4MAJ70TI5" opacity="1" fill="#f2a4ba" fill-opacity="1"></use></g><g><use xlink:href="#b5fWeNqQRP" opacity="1" fill="#5490cc" fill-opacity="1"></use></g><g><use xlink:href="#b46Ejw21d" opacity="1" fill="#cd2027" fill-opacity="1"></use></g><g><use xlink:href="#c3YU5TZnaD" opacity="1" fill="#44459c" fill-opacity="1"></use></g><g><use xlink:href="#a6ne6baJKg" opacity="1" fill="#f2a4ba" fill-opacity="1"></use></g><g><use xlink:href="#a2CVhySt" opacity="1" fill="#5490cc" fill-opacity="1"></use></g><g><use xlink:href="#bpunCvP8O" opacity="1" fill="#cd2027" fill-opacity="1"></use></g><g><use xlink:href="#fCDEPBs9z" opacity="1" fill="#44459c" fill-opacity="1"></use></g><g><use xlink:href="#a5HQuoTWjY" opacity="1" fill="#5490cc" fill-opacity="1"></use></g><g><use xlink:href="#i47EooBWD" opacity="1" fill="#44459c" fill-opacity="1"></use></g><g><use xlink:href="#buKLfaVc5" opacity="1" fill="#f2a4ba" fill-opacity="1"></use></g><g><use xlink:href="#iHSDIPad7" opacity="1" fill="#f2a4ba" fill-opacity="1"></use></g><g><use xlink:href="#f3Q7kLxwVx" opacity="1" fill="#44459c" fill-opacity="1"></use></g><g><use xlink:href="#doizBFcOX" opacity="1" fill="#5490cc" fill-opacity="1"></use></g><g><use xlink:href="#a3PCoqr4BP" opacity="1" fill="#cd2027" fill-opacity="1"></use></g><g><use xlink:href="#g1IRBA597w" opacity="1" fill="#cd2027" fill-opacity="1"></use></g><g><use xlink:href="#g3LlO7hlgD" opacity="1" fill="#f2a4ba" fill-opacity="1"></use></g><g><use xlink:href="#e2IaVyi2G3" opacity="1" fill="#5490cc" fill-opacity="1"></use></g><g><use xlink:href="#dkAMtrWSZ" opacity="1" fill="#44459c" fill-opacity="1"></use></g><g><use xlink:href="#a4nIxjplBd" opacity="1" fill="#cd2027" fill-opacity="1"></use></g><g><use xlink:href="#c5LOEWOMS" opacity="1" fill="#44459c" fill-opacity="1"></use></g><g><use xlink:href="#a2fPqVVgTc" opacity="1" fill="#f2a4ba" fill-opacity="1"></use></g><g><use xlink:href="#eov0hssNs" opacity="1" fill="#5490cc" fill-opacity="1"></use></g><g><use xlink:href="#b4ckV1zMyS" opacity="1" fill="#44459c" fill-opacity="1"></use></g><g><use xlink:href="#fJ5DvUVGQ" opacity="1" fill="#f2a4ba" fill-opacity="1"></use></g><g><use xlink:href="#c8xjaA0wMH" opacity="1" fill="#cd2027" fill-opacity="1"></use></g><g><use xlink:href="#e2AKsvnhw" opacity="1" fill="#cd2027" fill-opacity="1"></use></g><g><use xlink:href="#b2yc7n8KaU" opacity="1" fill="#cd2027" fill-opacity="1"></use></g><g><use xlink:href="#bo718djbb" opacity="1" fill="#cd2027" fill-opacity="1"></use></g><g><use xlink:href="#b38zCXAFGa" opacity="1" fill="#44459c" fill-opacity="1"></use></g><g><use xlink:href="#b1wyhODPIK" opacity="1" fill="#5490cc" fill-opacity="1"></use></g><g><use xlink:href="#ariDem30A" opacity="1" fill="#f2a4ba" fill-opacity="1"></use></g></g></svg>